# XSI Wavefront OBJ Export v3.0
# File Created: Thu May 04 14:21:13 2017
# XSI Version: 11.0.525.0
mtllib container.mtl

o cube5181
# Hierarchy (from self to top father)
g cube5181

#begin 8 vertices
v -2.044706 0.000180 -0.447178
v 2.041169 0.000180 -0.447178
v -2.044706 0.968424 -0.447178
v 2.041169 0.968424 -0.447178
v -2.044706 0.000180 0.444235
v 2.041169 0.000180 0.444235
v -2.044706 0.968424 0.444235
v 2.041169 0.968424 0.444235
#end 8 vertices

#begin 24 normals
vn 0.000000 -0.000000 -1.000000
vn 0.000000 -0.000000 -1.000000
vn 0.000000 -0.000000 -1.000000
vn 0.000000 -0.000000 -1.000000
vn -0.000000 -1.000000 0.000000
vn -0.000000 -1.000000 0.000000
vn -0.000000 -1.000000 0.000000
vn -0.000000 -1.000000 0.000000
vn -1.000000 0.000000 -0.000000
vn -1.000000 0.000000 -0.000000
vn -1.000000 0.000000 -0.000000
vn -1.000000 0.000000 -0.000000
vn 1.000000 0.000000 0.000000
vn 1.000000 0.000000 0.000000
vn 1.000000 0.000000 0.000000
vn 1.000000 0.000000 0.000000
vn 0.000000 1.000000 0.000000
vn 0.000000 1.000000 0.000000
vn 0.000000 1.000000 0.000000
vn 0.000000 1.000000 0.000000
vn 0.000000 0.000000 1.000000
vn 0.000000 0.000000 1.000000
vn 0.000000 0.000000 1.000000
vn 0.000000 0.000000 1.000000
#end 24 vertex normals

#begin texture vertices
vt 0.996601 0.255298 0.000000
vt 0.051952 0.022520 0.000000
vt 0.145163 0.549607 0.000000
vt 0.920160 0.022520 0.000000
vt 0.009106 0.255298 0.000000
vt 0.854673 0.549652 0.000000
vt 0.990340 0.505008 0.000000
vt 0.145542 0.725206 0.000000
vt 0.051952 0.239046 0.000000
vt 0.855051 0.725251 0.000000
vt 0.002844 0.505008 0.000000
vt 0.920160 0.239046 0.000000
vt 0.854673 0.549652 0.000000
vt 0.051952 0.239046 0.000000
vt 0.009106 0.255298 0.000000
vt 0.920160 0.239046 0.000000
vt 0.145163 0.549607 0.000000
vt 0.996601 0.255298 0.000000
vt 0.051952 0.022520 0.000000
vt 0.855051 0.725251 0.000000
vt 0.002844 0.505008 0.000000
vt 0.145542 0.725206 0.000000
vt 0.920160 0.022520 0.000000
vt 0.990340 0.505008 0.000000
#end 24 texture vertices

#begin 6 faces
usemtl lambert
f 1/1/1 3/7/2 4/11/3 2/5/4 
usemtl lambert
f 1/2/5 2/4/6 6/16/7 5/14/8 
usemtl lambert
f 1/3/9 5/13/10 7/20/11 3/8/12 
usemtl lambert
f 2/6/13 4/10/14 8/22/15 6/17/16 
usemtl lambert
f 3/9/17 7/19/18 8/23/19 4/12/20 
usemtl lambert
f 5/15/21 6/18/22 8/24/23 7/21/24 
#end 6 faces
